PathFileType	4	(X/Y/Z)	/Users/itak/Documents/Research/Walk-IL/dataset/trc/00155_00007.trc
DataRate	CameraRate	NumFrames	NumMarkers	Units	OrigDataRate	OrigDataStartFrame	OrigNumFrames
100.000000	100.000000	4	53	mm	100.000000	494	565
Frame#	Time	RPSI			LPSI			L3			STRN			T10			C7			CLAV			RBAK			LBAK			LSHO			LUPA			LAEL			LAOL			LWTS			LWPS			LFRA			LIFD			LHPS			LHTS			RSHO			RUPA			RAEL			RAOL			RWTS			RWPS			RFRA			RIFD			RHTS			RHPS			RBHD			LFHD			RFHD			LBHD			LHIP			RHIP			RASI			LASI			LKNE			LTHI			LANK			LTIP			LTOE			LMT1			LMT5			LHEE			RKNE			RTHI			RANK			RTIP			RTOE			RMT1			RMT5			RHEE			
		X1	Y1	Z1	X2	Y2	Z2	X3	Y3	Z3	X4	Y4	Z4	X5	Y5	Z5	X6	Y6	Z6	X7	Y7	Z7	X8	Y8	Z8	X9	Y9	Z9	X10	Y10	Z10	X11	Y11	Z11	X12	Y12	Z12	X13	Y13	Z13	X14	Y14	Z14	X15	Y15	Z15	X16	Y16	Z16	X17	Y17	Z17	X18	Y18	Z18	X19	Y19	Z19	X20	Y20	Z20	X21	Y21	Z21	X22	Y22	Z22	X23	Y23	Z23	X24	Y24	Z24	X25	Y25	Z25	X26	Y26	Z26	X27	Y27	Z27	X28	Y28	Z28	X29	Y29	Z29	X30	Y30	Z30	X31	Y31	Z31	X32	Y32	Z32	X33	Y33	Z33	X34	Y34	Z34	X35	Y35	Z35	X36	Y36	Z36	X37	Y37	Z37	X38	Y38	Z38	X39	Y39	Z39	X40	Y40	Z40	X41	Y41	Z41	X42	Y42	Z42	X43	Y43	Z43	X44	Y44	Z44	X45	Y45	Z45	X46	Y46	Z46	X47	Y47	Z47	X48	Y48	Z48	X49	Y49	Z49	X50	Y50	Z50	X51	Y51	Z51	X52	Y52	Z52	X53	Y53	Z53	

495	4.94	389.3611450195312	1127.9453125	505.7001342773438	524.3619995117188	1129.215698242188	501.2818298339844	459.6573181152344	1161.20556640625	495.4942626953125	469.6883544921875	1368.047973632812	704.6484375	462.5371704101562	1310.253173828125	451.1124267578125	481.1388549804688	1603.360107421875	476.4418334960938	473.8797302246094	1501.263427734375	663.1407470703125	389.9761047363281	1418.21728515625	429.4699401855469	582.2300415039062	1581.187255859375	469.1352233886719	650.7816772460938	1568.98095703125	554.7340087890625	718.7035522460938	1436.413452148438	541.5919189453125	740.5059204101562	1218.974975585938	576.9159545898438	681.9122314453125	1199.9677734375	513.3185424804688	698.4157104492188	973.179443359375	703.8045043945312	723.8527221679688	938.6486206054688	625.2592163085938	744.4320678710938	1104.75341796875	605.0422973632812	681.2031860351562	783.6723022460938	740.5722045898438	724.150634765625	867.4464111328125	662.6770629882812	708.9375610351562	886.9679565429688	727.6876831054688	300.1246032714844	1588.99072265625	534.62109375	235.2688903808594	1515.48828125	520.3087768554688	210.9969177246094	1220.86474609375	523.325927734375	307.1740417480469	1218.24609375	513.9052124023438	228.2701263427734	984.255615234375	677.5682983398438	192.585205078125	964.7793579101562	604.10595703125	194.9613037109375	1149.041381835938	550.4368286132812	243.6887817382812	790.378173828125	709.2232055664062	222.8230133056641	877.1798095703125	710.6065673828125	190.2854156494141	866.2838134765625	645.2823486328125	404.468505859375	1782.922729492188	528.3416137695312	545.1304321289062	1838.632934570312	688.9525146484375	416.7209777832031	1845.559204101562	695.9456176757812	539.1077270507812	1781.483276367188	514.1410522460938	634.9840087890625	1041.677734375	591.4827270507812	277.5361022949219	1038.315063476562	642.3992919921875	333.5732421875	1112.614624023438	716.984619140625	599.7412719726562	1109.046875	701.0640869140625	589.2335815429688	539.865478515625	627.7984619140625	621.1991577148438	684.7155151367188	603.3740234375	560.912353515625	36.72152709960938	536.6387329101562	604.8135375976562	291.4410095214844	537.2470703125	490.48876953125	40.11610794067383	764.982421875	463.2220153808594	47.93354415893555	680.94091796875	581.97509765625	36.37570571899414	662.3129272460938	502.6776733398438	37.68394470214844	464.5616455078125	317.4054870605469	543.6046142578125	670.8857421875	284.6881408691406	825.3450317382812	673.54052734375	318.644287109375	31.96654891967773	564.0747680664062	303.3926696777344	409.1349182128906	646.4382934570312	391.9632568359375	45.32974243164062	790.6499633789062	428.6874084472656	37.80665969848633	726.2508544921875	309.6307373046875	40.82348251342773	699.991455078125	361.6405334472656	32.66299057006836	502.4303588867188	
496	4.95	389.3180236816406	1128.18310546875	507.6005554199219	524.2782592773438	1129.06884765625	502.9756164550781	459.5702514648438	1161.041625976562	497.2491760253906	470.0876159667969	1368.1123046875	705.9154663085938	462.4057006835938	1310.015380859375	452.5071105957031	480.9347229003906	1603.152099609375	477.3698120117188	474.1965637207031	1501.261352539062	664.214111328125	389.7766418457031	1417.901489257812	430.8040771484375	581.9915161132812	1581.056762695312	469.8324584960938	650.8742065429688	1568.99267578125	555.2377319335938	718.5818481445312	1436.271484375	541.5501708984375	739.7798461914062	1218.5693359375	575.6250610351562	680.7265014648438	1200.19287109375	512.2738037109375	697.850341796875	971.3051147460938	699.9298095703125	722.8375244140625	937.751708984375	620.827880859375	743.5921630859375	1104.070556640625	602.5850219726562	680.3090209960938	781.2335205078125	734.2850952148438	723.1571655273438	866.0396118164062	657.2780151367188	708.2897338867188	884.7048950195312	722.6253662109375	300.0749816894531	1588.6748046875	535.9445190429688	235.1880035400391	1515.1474609375	521.794921875	210.6623687744141	1220.629638671875	524.9523315429688	306.8140563964844	1217.895141601562	515.2538452148438	228.1920471191406	984.0965576171875	679.2918090820312	192.2837219238281	964.572509765625	605.9459228515625	194.6495208740234	1148.821166992188	552.1416015625	243.5157318115234	790.246826171875	711.0474853515625	222.7705993652344	877.0872192382812	712.4469604492188	190.0469207763672	866.1472778320312	647.2373046875	404.1151733398438	1782.812866210938	529.4422607421875	544.9650268554688	1838.555297851562	689.83056640625	416.6008911132812	1845.326416015625	697.10498046875	538.7080078125	1781.606567382812	514.9799194335938	634.7979125976562	1041.622314453125	593.1266479492188	277.449462890625	1038.817993164062	644.3088989257812	333.7402038574219	1112.912841796875	718.9889526367188	599.90576171875	1108.990478515625	702.693603515625	588.95751953125	539.76025390625	629.0604248046875	620.9932861328125	684.6661987304688	604.8425903320312	560.7279052734375	36.89828491210938	536.645751953125	604.5364379882812	291.4932250976562	537.828125	490.5104370117188	40.11494445800781	765.083740234375	463.1720275878906	47.91510391235352	681.0100708007812	581.9374389648438	36.41434860229492	662.299072265625	502.4234924316406	37.76478958129883	464.5995788574219	315.5169067382812	543.7176513671875	667.4155883789062	283.9186706542969	825.4116821289062	673.14990234375	318.4992980957031	31.75766944885254	563.9845581054688	302.0087890625	409.5557861328125	643.3197021484375	391.8663635253906	45.45438385009766	790.5117797851562	428.587646484375	37.84685134887695	726.1306762695312	309.5357971191406	40.76334381103516	699.9581298828125	361.5396728515625	32.48115158081055	502.3984375	
497	4.96	389.2590637207031	1128.3486328125	509.4721374511719	524.19677734375	1128.883056640625	504.6717529296875	459.4790954589844	1160.813110351562	498.9924011230469	470.4468688964844	1368.102416992188	707.1613159179688	462.2729187011719	1309.699340820312	453.8747863769531	480.771240234375	1602.874145507812	478.2601623535156	474.4856262207031	1501.18310546875	665.2526245117188	389.6133728027344	1417.497436523438	432.0901489257812	581.77880859375	1580.833129882812	470.5130920410156	650.9804077148438	1568.885498046875	555.7374267578125	718.4833374023438	1436.015258789062	541.476806640625	739.1223754882812	1218.071655273438	574.25341796875	679.6311645507812	1200.307861328125	511.1336364746094	697.3231201171875	969.4241333007812	696.0581665039062	721.89697265625	936.8172607421875	616.4428100585938	742.8189697265625	1103.314086914062	600.0830688476562	679.3147583007812	778.8250122070312	728.0633544921875	722.2159423828125	864.6262817382812	651.9541625976562	707.6668090820312	882.461181640625	717.607177734375	300.0366516113281	1588.30810546875	537.1810913085938	235.1227722167969	1514.753784179688	523.1812133789062	210.3827362060547	1220.325073242188	526.5399780273438	306.5106506347656	1217.481323242188	516.6148071289062	228.1169891357422	983.90234375	681.0355834960938	192.01806640625	964.3250732421875	607.7906494140625	194.3887939453125	1148.54052734375	553.8181762695312	243.3160247802734	790.0955200195312	712.931396484375	222.6911315917969	876.9628295898438	714.3244018554688	189.8101043701172	865.96875	649.2079467773438	403.7806701660156	1782.628173828125	530.4734497070312	544.7858276367188	1838.42138671875	690.657958984375	416.46923828125	1845.020874023438	698.1978759765625	538.3330688476562	1781.666748046875	515.7686157226562	634.5762939453125	1041.504272460938	594.8306884765625	277.3383178710938	1039.222290039062	646.1480712890625	333.8436889648438	1113.116821289062	720.9402465820312	600.0159301757812	1108.88671875	704.3458251953125	588.7267456054688	539.6282958984375	630.27880859375	620.8712768554688	684.601806640625	606.2860717773438	560.5700073242188	37.03363418579102	536.6530151367188	604.3466796875	291.4986267089844	538.3978271484375	490.5198669433594	40.11122512817383	765.1760864257812	463.1290283203125	47.90043258666992	681.0661010742188	581.9080810546875	36.44702911376953	662.288330078125	502.2308959960938	37.81831741333008	464.6236572265625	313.7720031738281	543.8162841796875	664.0001220703125	283.1634521484375	825.30126953125	672.6346435546875	318.3641967773438	31.56073188781738	563.8973999023438	300.7236938476562	409.9608154296875	640.2098388671875	391.7723999023438	45.58370971679688	790.3624267578125	428.5234680175781	37.89189147949219	726.016357421875	309.4471130371094	40.70929718017578	699.9150390625	361.4441833496094	32.29100799560547	502.3603210449219	
498	4.97	389.189208984375	1128.453247070312	511.3082885742188	524.1213989257812	1128.670288085938	506.3667907714844	459.3865051269531	1160.532348632812	500.7198486328125	470.7568969726562	1368.02734375	708.3887939453125	462.1434631347656	1309.30908203125	455.2212829589844	480.644775390625	1602.5322265625	479.1111145019531	474.7385559082031	1501.0380859375	666.2572021484375	389.4859619140625	1417.014770507812	433.3319091796875	581.58984375	1580.520751953125	471.180419921875	651.0955810546875	1568.66796875	556.237060546875	718.4069213867188	1435.654541015625	541.3834838867188	738.5283203125	1217.488037109375	572.8108520507812	678.6242065429688	1200.322021484375	509.90673828125	696.833740234375	967.54443359375	692.2049560546875	721.02880859375	935.84912109375	612.115478515625	742.1087646484375	1102.48974609375	597.5462646484375	678.2842407226562	776.4694213867188	721.9319458007812	721.3302612304688	863.2113037109375	646.72314453125	707.0735473632812	880.2473754882812	712.6531982421875	300.0071105957031	1587.902954101562	538.3241577148438	235.0743865966797	1514.324951171875	524.4646606445312	210.1651763916016	1219.962280273438	528.0843505859375	306.2737426757812	1217.025634765625	517.9940795898438	228.0453796386719	983.6885375976562	682.7946166992188	191.7971038818359	964.0494384765625	609.6285400390625	194.1831970214844	1148.2119140625	555.460205078125	243.1033782958984	789.9292602539062	714.8718872070312	222.5849761962891	876.8156127929688	716.2265625	189.5829010009766	865.7525024414062	651.1744384765625	403.4686889648438	1782.377075195312	531.4298095703125	544.5999145507812	1838.242065429688	691.4371337890625	416.3224792480469	1844.656005859375	699.2109985351562	537.990966796875	1781.666748046875	516.5075073242188	634.3414916992188	1041.317749023438	596.5391845703125	277.2072143554688	1039.5263671875	647.9027709960938	333.882080078125	1113.226318359375	722.828857421875	600.0694580078125	1108.743286132812	706.0231323242188	588.5377807617188	539.4765014648438	631.4436645507812	620.797119140625	684.5164184570312	607.7030029296875	560.4462890625	37.12614440917969	536.6594848632812	604.2376098632812	291.4705200195312	538.94775390625	490.5186462402344	40.10386276245117	765.2565307617188	463.0936584472656	47.88981628417969	681.10888671875	581.8861694335938	36.47197723388672	662.2810668945312	502.0974731445312	37.84781265258789	464.6354370117188	312.1985778808594	543.8994750976562	660.6887817382812	282.4295349121094	825.0588989257812	672.0802001953125	318.2484436035156	31.38488960266113	563.8125	299.5473937988281	410.3435974121094	637.1568603515625	391.6866455078125	45.71831893920898	790.2029418945312	428.4867553710938	37.94031524658203	725.8995971679688	309.3676452636719	40.66313934326172	699.861328125	361.360107421875	32.09833145141602	502.3133544921875	
